HIERARCHY
ROOT hip
{
	OFFSET 0.00000 0.00000 0.00000
	CHANNELS 6 Xposition Yposition Zposition Zrotation Yrotation Xrotation 
	JOINT rightuplegdummy
	{
		OFFSET 0 0 0
		CHANNELS 3 Zrotation Yrotation Xrotation
		JOINT rightupleg
		{
			OFFSET -3.52197 -3.41223 0.04002
			CHANNELS 3 Zrotation Yrotation Xrotation
			JOINT rightleg
			{
				OFFSET 0.00006 -17.42390 1.60435
				CHANNELS 3 Zrotation Yrotation Xrotation
				JOINT rightfoot
				{
					OFFSET 0.06153 -16.50078 -1.63901
					CHANNELS 3 Zrotation Yrotation Xrotation
					JOINT righttoes
					{
						OFFSET 0.00298 -1.73825 3.34613
						CHANNELS 3 Zrotation Yrotation Xrotation
						End Site
						{
							OFFSET 0.00480 -0.05416 3.85043
						}
					}
				}
			}
		}
	}
	JOINT spinedummy
	{
		OFFSET 0 0 0
		CHANNELS 3 Zrotation Yrotation Xrotation
		JOINT spine
		{
			OFFSET 0.00000 4.68130 0.00000
			CHANNELS 3 Zrotation Yrotation Xrotation
			JOINT spine1
			{
				OFFSET -0.00000 10.10138 0.05002
				CHANNELS 3 Zrotation Yrotation Xrotation
				JOINT headdummy
				{
					OFFSET 0 0 0
					CHANNELS 3 Zrotation Yrotation Xrotation
					JOINT head
					{
						OFFSET -0.00000 3.43865 0.00438
						CHANNELS 3 Zrotation Yrotation Xrotation
						End Site
						{
							OFFSET -0.11417 5.02924 0.98962
						}
					}
				}
				JOINT leftshoulder1dummy
				{
					OFFSET 0 0 0
					CHANNELS 3 Zrotation Yrotation Xrotation
					JOINT leftshoulder1
					{
						OFFSET 3.53937 -0.14262 -0.08662
						CHANNELS 3 Zrotation Yrotation Xrotation
						JOINT leftarm
						{
							OFFSET 4.04833 -0.00133 0.12681
							CHANNELS 3 Zrotation Yrotation Xrotation
							JOINT leftforearm
							{
								OFFSET 10.33880 -0.01036 -0.55515
								CHANNELS 3 Zrotation Yrotation Xrotation
								JOINT lefthand
								{
									OFFSET 8.69677 0.07543 0.40060
									CHANNELS 3 Zrotation Yrotation Xrotation
									End Site
									{
										OFFSET 5.28377 -0.21905 0.59205
									}
								}
							}
						}
					}
				}
				JOINT rightshoulderdummy
				{
					OFFSET 0 0 0
					CHANNELS 3 Zrotation Yrotation Xrotation
					JOINT rightshoulder
					{
						OFFSET -3.53937 -0.14262 -0.08660
						CHANNELS 3 Zrotation Yrotation Xrotation
						JOINT rightarm
						{
							OFFSET -4.04833 -0.00133 0.12683
							CHANNELS 3 Zrotation Yrotation Xrotation
							JOINT rightforearm
							{
								OFFSET -10.37987 -0.01039 -0.55511
								CHANNELS 3 Zrotation Yrotation Xrotation
								JOINT righthand
								{
									OFFSET -8.67398 0.07538 0.40058
									CHANNELS 3 Zrotation Yrotation Xrotation
									End Site
									{
										OFFSET -5.24810 -0.21916 0.59204
									}
								}
							}
						}
					}
				}
			}
		}
	}
	JOINT leftuplegdummy
	{
		OFFSET 0 0 0
		CHANNELS 3 Zrotation Yrotation Xrotation
		JOINT leftupleg
		{
			OFFSET 3.52197 -3.41223 0.04002
			CHANNELS 3 Zrotation Yrotation Xrotation
			JOINT leftleg
			{
				OFFSET -0.00012 -17.42399 1.60337
				CHANNELS 3 Zrotation Yrotation Xrotation
				JOINT leftfoot
				{
					OFFSET -0.09972 -16.50070 -1.63802
					CHANNELS 3 Zrotation Yrotation Xrotation
					JOINT lefttoes
					{
						OFFSET -0.01575 -1.73823 3.34611
						CHANNELS 3 Zrotation Yrotation Xrotation
						End Site
						{
							OFFSET 0.03150 -0.01868 3.85031
						}
					}
				}
			}
		}
	}
}
MOTION
Frames: 10
Frame Time: 0.033333
0.7891 40.9529 28.3880 174.5350 -62.4122 -178.8940 0.0000 -0.0000 0.0000 -19.0572 -13.4468 -9.3090 3.0663 7.3412 18.4222 12.3180 -3.0920 17.3259 0.0000 0.0000 -0.0000 0.0000 -0.0000 0.0000 -8.8701 -3.5642 1.5549 4.5799 -5.2707 10.7355 -0.0000 -0.0000 -0.0000 12.1915 -39.0550 -6.7199 -0.0000 -0.0000 -0.0000 -19.7973 -3.8349 1.9275 -52.8485 -2.3039 30.0952 -179.9925 -84.2446 -170.6388 7.2829 8.6916 0.1432 -0.0000 -0.0000 -0.0000 26.5170 4.4407 2.5922 39.4724 -11.2107 -0.2319 0.9170 44.2535 -2.8439 -14.6931 -1.6183 -0.4875 0.0000 -0.0000 0.0000 11.6319 17.0822 8.4021 1.9301 6.4972 17.1999 -11.0606 1.9456 9.1250 0.0000 -0.0000 -0.0000
0.9866 40.7455 28.5474 174.3960 -62.4945 -179.5860 0.0000 -0.0000 0.0000 -19.2818 -9.9208 -9.1976 4.7552 10.0976 20.6484 14.4712 -3.2776 14.4850 0.0000 0.0000 -0.0000 0.0000 -0.0000 0.0000 -8.4560 -3.4248 2.6278 3.5340 -5.0641 10.8529 -0.0000 -0.0000 -0.0000 13.1988 -38.0681 -9.1902 -0.0000 -0.0000 -0.0000 -16.6893 -3.6061 1.6632 -55.0399 -1.8858 30.5725 178.2267 -82.4197 -163.9402 2.5655 6.9368 -0.0251 -0.0000 -0.0000 -0.0000 23.4188 3.9331 2.2062 39.8064 -9.3584 10.4288 1.0502 36.3485 -7.0445 -0.0575 -1.9966 -0.0069 0.0000 -0.0000 0.0000 11.9782 21.6056 8.3991 2.8999 7.5783 19.0855 -10.5353 1.6836 7.2767 0.0000 -0.0000 -0.0000
1.3004 39.8875 28.6710 173.9980 -62.8339 179.1600 0.0000 -0.0000 0.0000 -19.7686 -5.6384 -9.0375 5.3937 9.4441 25.2843 17.0829 -3.0943 9.3468 0.0000 0.0000 -0.0000 0.0000 -0.0000 0.0000 -9.2470 -2.9189 5.2403 3.5560 -5.0608 10.4016 -0.0000 -0.0000 -0.0000 13.5623 -37.2164 -11.5090 -0.0000 -0.0000 -0.0000 -14.6006 -3.3523 1.4721 -55.1733 -4.1920 31.5611 178.0345 -81.4631 -162.4997 1.2904 6.6223 -0.0427 -0.0000 -0.0000 -0.0000 21.5302 3.7566 2.0241 38.8967 -7.9536 19.8336 0.9405 32.9846 -5.6799 6.1573 -2.6747 0.1221 0.0000 -0.0000 0.0000 13.1610 26.9727 8.3718 3.6556 5.9951 23.7995 -13.4853 1.4904 1.3821 0.0000 -0.0000 -0.0000
1.6390 38.4802 28.7642 172.9530 -63.9034 179.2960 0.0000 -0.0000 0.0000 -20.5880 -5.0274 -9.6032 5.3598 7.7535 30.2677 17.5786 -1.5433 -1.4080 0.0000 0.0000 -0.0000 0.0000 -0.0000 0.0000 -10.8104 -2.6437 6.6432 4.4840 -5.4020 10.3032 -0.0000 -0.0000 -0.0000 13.3460 -36.7868 -13.2487 -0.0000 -0.0000 -0.0000 -14.0303 -3.3232 1.4314 -51.8061 -8.4867 32.1035 179.2052 -80.8283 -167.1965 2.5891 6.9246 -0.0229 -0.0000 -0.0000 -0.0000 21.7928 4.1008 2.1388 36.4291 -7.7118 25.6471 0.6315 33.7877 0.0243 7.0622 -4.9028 -0.0167 0.0000 -0.0000 0.0000 13.8774 28.6768 7.1382 3.4718 4.3813 29.4028 -16.5822 0.4242 -8.7163 0.0000 -0.0000 -0.0000
1.9749 37.1648 28.9081 173.8790 -65.3274 178.8080 0.0000 -0.0000 0.0000 -20.5594 -8.4604 -11.3406 6.6368 8.2024 34.4720 15.8147 -0.1719 -10.3842 0.0000 0.0000 -0.0000 0.0000 -0.0000 0.0000 -10.7462 -3.0379 6.4196 4.2710 -5.9119 11.3468 -0.0000 -0.0000 -0.0000 14.2261 -36.4475 -16.1923 -0.0000 -0.0000 -0.0000 -16.4571 -2.8378 1.4699 -43.5925 -15.7011 30.8249 -179.7898 -81.6195 -171.5209 3.0808 7.6670 -0.0021 -0.0000 -0.0000 -0.0000 24.7388 4.6506 2.5215 32.7177 -5.9225 26.2576 0.1759 32.0967 7.8945 5.5610 -3.3546 0.0650 0.0000 -0.0000 0.0000 15.0710 28.9247 4.4008 1.2763 1.0098 34.7570 -17.5257 -1.0539 -18.9067 0.0000 -0.0000 -0.0000
2.2711 36.4900 29.0623 177.5930 -66.4795 175.9240 0.0000 -0.0000 0.0000 -19.2741 -12.2045 -13.2704 8.7482 9.5801 37.8615 13.8936 0.1053 -12.5626 0.0000 0.0000 -0.0000 0.0000 -0.0000 0.0000 -9.3596 -3.3306 6.3983 3.8638 -6.2115 12.5157 -0.0000 -0.0000 -0.0000 16.4343 -36.2256 -20.0352 -0.0000 -0.0000 -0.0000 -20.2778 -2.4386 1.5887 -38.4619 -21.2453 27.3861 175.8771 -84.5448 -158.1661 0.2706 7.9324 -0.0617 -0.0000 -0.0000 -0.0000 28.3410 5.0034 2.9255 32.4215 -3.6158 14.3366 0.0998 25.2377 9.3586 -5.5298 -0.6028 -0.2189 0.0000 -0.0000 0.0000 16.9113 28.9154 1.6179 -0.7066 -1.1858 38.8051 -17.3387 -1.7667 -23.8238 0.0000 -0.0000 -0.0000
2.3527 36.7376 28.9605 -179.9960 -68.0717 173.9140 0.0000 -0.0000 0.0000 -18.3097 -14.6239 -12.9154 9.3278 10.2175 37.8736 14.1379 -0.1170 -10.7267 0.0000 0.0000 -0.0000 0.0000 -0.0000 0.0000 -11.0904 -3.3892 6.9146 6.8235 -7.2358 12.4858 -0.0000 -0.0000 -0.0000 17.6204 -36.0515 -21.7704 -0.0000 -0.0000 -0.0000 -21.3707 -2.5062 1.6673 -44.2544 -18.3237 24.7315 168.9814 -84.8667 -138.4003 1.2951 8.2164 -0.0312 -0.0000 -0.0000 -0.0000 30.0743 5.1132 3.1099 37.5553 -4.6030 -6.7408 0.6688 25.3726 -0.7394 -25.7549 -0.7035 -1.1424 0.0000 -0.0000 0.0000 17.8122 28.5540 1.4993 -1.2171 -1.7837 37.1897 -17.1799 -1.5267 -22.2883 0.0000 -0.0000 -0.0000
2.1710 37.7598 28.5362 -179.2490 -70.5208 173.6860 0.0000 -0.0000 0.0000 -17.4600 -15.0366 -10.6820 6.9755 8.6674 34.2185 15.8444 -0.8510 -5.4311 0.0000 0.0000 -0.0000 0.0000 -0.0000 0.0000 -15.3849 -4.0554 6.4267 11.5867 -9.2658 11.6711 -0.0000 -0.0000 -0.0000 16.4879 -35.6820 -19.5746 -0.0000 -0.0000 -0.0000 -20.8372 -2.4837 1.6313 -51.6470 -9.7432 24.2801 174.5778 -81.5077 -147.7051 8.3208 8.7117 0.1669 -0.0000 -0.0000 -0.0000 30.5797 5.1547 3.1683 42.2182 -7.8773 -12.5923 1.3367 31.2551 -13.3408 -35.5530 0.1416 -1.6693 0.0000 -0.0000 0.0000 17.6299 26.7660 4.2204 -1.0394 -2.4311 28.4412 -18.0359 -0.8157 -17.1293 0.0000 -0.0000 -0.0000
1.9533 38.7526 28.0135 -175.9560 -73.4252 171.6560 0.0000 -0.0000 0.0000 -15.5496 -12.5524 -10.0551 4.2417 5.7356 32.3274 15.7022 -1.7066 1.0182 0.0000 0.0000 -0.0000 0.0000 -0.0000 0.0000 -17.4323 -5.4641 4.7254 14.1252 -11.0575 11.3174 -0.0000 -0.0000 -0.0000 14.7708 -35.1890 -15.6344 -0.0000 -0.0000 -0.0000 -20.8095 -2.3439 1.5917 -52.1088 -3.5077 24.0013 177.8406 -78.6448 -159.4944 8.0665 7.0265 0.0630 -0.0000 -0.0000 -0.0000 30.7047 5.0959 3.1574 43.1856 -12.2054 -10.7598 0.9638 36.3877 -5.3104 -16.9627 -1.3244 -0.6027 0.0000 -0.0000 0.0000 17.5436 18.9356 6.2744 -0.2223 3.0614 19.0582 -19.5771 0.1004 -11.1436 0.0000 -0.0000 -0.0000
1.9162 39.1574 27.4920 -172.9280 -77.2644 170.0180 0.0000 -0.0000 0.0000 -14.5283 -10.2931 -11.4008 5.0890 6.3835 34.1881 13.6227 -1.6014 2.0253 0.0000 0.0000 -0.0000 0.0000 -0.0000 0.0000 -19.0711 -6.7843 3.6934 15.5619 -12.5616 11.2350 -0.0000 -0.0000 -0.0000 13.7400 -34.6145 -13.5319 -0.0000 -0.0000 -0.0000 -20.0599 -2.3236 1.5453 -49.4192 -1.2345 21.3821 177.7518 -76.2855 -157.0384 0.1890 5.1820 -0.0419 -0.0000 -0.0000 -0.0000 29.6634 4.7130 2.9330 43.6741 -17.6822 -15.9416 -0.2164 45.4631 14.6818 2.2585 5.2311 0.2139 0.0000 -0.0000 0.0000 17.9856 17.9260 4.9624 -0.1726 6.4352 16.5667 -18.1043 0.7254 -7.0377 0.0000 -0.0000 -0.0000
